<?xml version="1.0" encoding="utf-8"?>
<!-- Generator: Adobe Illustrator 23.0.2, SVG Export Plug-In . SVG Version: 6.00 Build 0)  -->
<svg version="1.1" id="图层_1" xmlns="http://www.w3.org/2000/svg" xmlns:xlink="http://www.w3.org/1999/xlink" x="0px" y="0px"
	 viewBox="0 0 516 321" style="enable-background:new 0 0 516 321;" xml:space="preserve">
<style type="text/css">
	.st0{fill:url(#SVGID_1_);}
	.st1{fill:url(#SVGID_2_);}
	.st2{fill:url(#SVGID_3_);}
</style>
<linearGradient id="SVGID_1_" gradientUnits="userSpaceOnUse" x1="-19.2637" y1="402.4867" x2="169.7265" y2="154.0995" gradientTransform="matrix(1 0 0 -1 0 322)">
	<stop  offset="0" style="stop-color:#BA3CCB"/>
	<stop  offset="1" style="stop-color:#8B05FB"/>
</linearGradient>
<path class="st0" d="M210.6,117.6l-48.9,71.8c-13.4,19.7-42.6,18.9-55.2-0.8l-82-127l0,0C19.7,53.7,11,48.2,0.8,48.2L0,47.4l40.2-30
	c24.5-14.2,55.2-7.1,71,16.6l42.6,65.5l0.8,0.8C168,116.8,190.1,123.1,210.6,117.6L210.6,117.6z"/>
<linearGradient id="SVGID_2_" gradientUnits="userSpaceOnUse" x1="307.2975" y1="10.1067" x2="244.121" y2="212.596" gradientTransform="matrix(1 0 0 -1 0 322)">
	<stop  offset="0.2654" style="stop-color:#FC6229"/>
	<stop  offset="1" style="stop-color:#FF943F"/>
</linearGradient>
<path class="st1" d="M352.6,17.4c-24.5-14.2-55.2-7.1-71,16.6L173.5,201.2l-0.8,0.8c-10.3,15-28.4,21.3-45.7,15.8l-10.3-3.9
	l54.4,85.2c10.3,15.8,33.1,15.8,43.4,0l168-258.7L352.6,17.4z"/>
<linearGradient id="SVGID_3_" gradientUnits="userSpaceOnUse" x1="429.2056" y1="48.1421" x2="366.029" y2="250.6315" gradientTransform="matrix(1 0 0 -1 0 322)">
	<stop  offset="0.2654" style="stop-color:#FC6229"/>
	<stop  offset="1" style="stop-color:#FF943F"/>
</linearGradient>
<path class="st2" d="M476.4,17.4c-24.5-14.2-55.2-7.1-71,16.6L264.2,251.7l30,47.3c10.3,15.8,33.1,15.8,43.4,0l122.3-188.5
	l32.3-49.7c4.7-7.9,13.4-13.4,23.7-13.4h0.8L476.4,17.4z"/>
</svg>
