<?xml version="1.0" encoding="utf-8"?>
<!-- Generator: Adobe Illustrator 23.0.2, SVG Export Plug-In . SVG Version: 6.00 Build 0)  -->
<svg version="1.1" id="图层_1" xmlns="http://www.w3.org/2000/svg" xmlns:xlink="http://www.w3.org/1999/xlink" x="0px" y="0px"
	 viewBox="0 0 2003 321" style="enable-background:new 0 0 2003 321;" xml:space="preserve">
<style type="text/css">
	.st0{fill:url(#SVGID_1_);}
	.st1{fill:url(#SVGID_2_);}
	.st2{fill:url(#SVGID_3_);}
	.st3{fill:#262A36;}
</style>
<linearGradient id="SVGID_1_" gradientUnits="userSpaceOnUse" x1="-16.5945" y1="369.0953" x2="146.209" y2="155.1249" gradientTransform="matrix(1 0 0 -1 0 322)">
	<stop  offset="0" style="stop-color:#BA3CCB"/>
	<stop  offset="1" style="stop-color:#8B05FB"/>
</linearGradient>
<path class="st0" d="M181.4,123.6l-42.1,61.8c-11.6,17-36.7,16.3-47.6-0.7L21.1,75.3l0,0C17,68.5,9.5,63.8,0.7,63.8L0,63.1
	l34.7-25.8C55.7,25,82.2,31.1,95.8,51.5l36.7,56.4l0.7,0.7C144.7,122.9,163.7,128.3,181.4,123.6L181.4,123.6z"/>
<linearGradient id="SVGID_2_" gradientUnits="userSpaceOnUse" x1="264.7181" y1="31.0839" x2="210.2953" y2="205.5161" gradientTransform="matrix(1 0 0 -1 0 322)">
	<stop  offset="0.2654" style="stop-color:#FC6229"/>
	<stop  offset="1" style="stop-color:#FF943F"/>
</linearGradient>
<path class="st1" d="M303.7,37.3c-21.1-12.2-47.6-6.1-61.1,14.3l-93.1,144l-0.7,0.7c-8.8,12.9-24.5,18.3-39.4,13.6l-8.8-3.4
	l46.9,73.4c8.8,13.6,28.5,13.6,37.4,0L329.5,57L303.7,37.3z"/>
<linearGradient id="SVGID_3_" gradientUnits="userSpaceOnUse" x1="369.7344" y1="63.8491" x2="315.3117" y2="238.2813" gradientTransform="matrix(1 0 0 -1 0 322)">
	<stop  offset="0.2654" style="stop-color:#FC6229"/>
	<stop  offset="1" style="stop-color:#FF943F"/>
</linearGradient>
<path class="st2" d="M410.4,37.3c-21.1-12.2-47.6-6.1-61.1,14.3L227.6,239.1l25.8,40.8c8.8,13.6,28.5,13.6,37.4,0l105.3-162.4
	L424,74.6c4.1-6.8,11.6-11.6,20.4-11.6h0.7L410.4,37.3z"/>
<g>
	<path class="st3" d="M764.4,47.5l-48.2,157.6l-43.5-142c-2.7-9.5-11.6-16.3-21.7-16.3s-19,6.1-21.7,16.3L585,204.4l-47.6-157h-38.7
		l68.6,222.9h35.3L651.6,114l48.9,156.3h35.3l68.6-222.9C804.5,47.5,764.4,47.5,764.4,47.5z"/>
	<path class="st3" d="M860.9,118.8h6.8c23.1,0,42.1,5.4,57.1,17c5.4,4.1,8.8,8.2,11.6,11.6c9.5,12.9,14.3,28.5,14.3,46.9v2
		c0,5.4-0.7,10.9-1.4,16.3H815.3c3.4,9.5,9.5,16.3,17.7,21.1c8.2,4.8,17.7,6.8,27.2,6.8h82.2V271h-82.9c-19,0-35.3-3.4-48.2-10.2
		c-22.4-12.2-33.3-34-33.3-64.5v-1.4c0-20.4,6.1-37.4,17.7-51C811.3,126.9,832.3,118.8,860.9,118.8z M814.7,179.9h99.2
		c-3.4-9.5-8.8-17-16.3-21.7c-8.8-5.4-19-8.2-29.9-8.2h-6.8c-14.3,0-25.8,4.1-35.3,12.9c-4.1,4.1-6.8,8.2-8.2,10.9
		C816.7,174.5,815.3,176.5,814.7,179.9z"/>
	<path class="st3" d="M965.5,46.8h34v72h42.8c27.9,0,49.6,7.5,64.5,23.1c12.2,13.6,19,30.6,19,52.3v1.4c0,32.6-12.2,54.4-36.7,66.6
		c-12.2,6.1-27.9,8.8-44.8,8.8h-78.1V46.8H965.5z M999.5,150v89.7h43.5c12.2,0,22.4-3.4,31.9-10.2c10.9-8.2,15.6-19.7,15.6-35.3
		c0-18.3-7.5-31.3-22.4-38.7c-7.5-4.1-16.3-6.1-25.8-6.1h-42.8V150z"/>
	<path class="st3" d="M1138.1,46.8h80.9c35.3,0,58.4,8.8,69.3,27.2c6.1,9.5,8.8,21.7,8.8,36.7c0,18.3-5.4,32.6-16.3,43.5l0,0
		c17.7,9.5,25.8,27.2,25.8,52.3v1.4c0,19.7-6.8,34.7-19.7,46.2c-14.3,11.6-33.3,17-58.4,17h-91v-30.6h90.4
		c21.7,0,35.3-6.1,40.8-17.7c2-4.8,3.4-9.5,3.4-14.9c0-15.6-7.5-25.1-21.7-29.9c-6.1-2-14.3-2.7-23.1-2.7h-82.2v-30.6h72
		c21.7,0,35.3-5.4,40.8-16.3c2.7-4.8,3.4-10.2,3.4-15.6V112c0-21.7-14.9-32.6-44.8-32.6H1136V46.8H1138.1z"/>
	<path class="st3" d="M1385.4,118.8h93.1v28.5h-90.4c-19,0-30.6,2.7-34.7,8.8c-1.4,2-2,4.1-2,6.1v1.4c0,6.1,4.1,10.2,12.9,12.9
		c5.4,2,12.2,2.7,21.1,2.7h25.8c34,0,56.4,8.2,66.6,25.1c3.4,6.1,4.8,12.2,4.8,19v1.4c0,20.4-11.6,34-34,41.4
		c-10.2,2.7-21.7,4.1-33.3,4.1h-91.7v-28.5h89.7c19,0,31.3-3.4,35.3-10.9c1.4-2,2-4.1,2-6.1v-1.4c0-6.1-5.4-10.9-17-12.9
		c-5.4-1.4-11.6-1.4-17.7-1.4h-21.7c-15.6,0-27.9-1.4-36.7-4.1c-4.8-1.4-9.5-2.7-12.9-4.8c-16.3-8.2-24.5-19.7-24.5-36V163
		c0-17,8.2-29.2,25.1-36.7C1355.5,121.5,1369.1,118.8,1385.4,118.8z"/>
	<path class="st3" d="M1621.2,46.8h34v223.5H1577c-25.8,0-45.5-6.1-59.8-18.3c-14.9-12.9-21.7-31.9-21.7-57.1v-1.4
		c0-17.7,4.8-33.3,13.6-45.5c14.9-19.7,38-29.2,69.3-29.2h42.8V46.8z M1529.4,194.9c0,17.7,7.5,30.6,21.7,38.7
		c8.2,4.1,17,6.1,25.8,6.1h43.5V150h-42.8c-13.6,0-25.1,3.4-34,10.9C1534.2,169.1,1529.4,180.6,1529.4,194.9z"/>
	<path class="st3" d="M1673.5,46.8h34v114.8l0,0c25.8,0,46.9-5.4,64.5-15.6c17.7-10.9,26.5-25.8,26.5-44.8h35.3v0.7
		c-2,31.3-12.9,57.1-39.4,72.7c-1.4,1.4-3.4,2-5.4,2.7l0,0c-30.6,12.2-58.4,15.6-81.5,15.6v77.5h-34L1673.5,46.8L1673.5,46.8z"/>
	<path class="st3" d="M1905.8,118.8h93.1v28.5h-90.4c-19,0-30.6,2.7-34.7,8.8c-1.4,2-2,4.1-2,6.1v1.4c0,6.1,4.1,10.2,12.9,12.9
		c5.4,2,12.2,2.7,21.1,2.7h25.8c34,0,56.4,8.2,66.6,25.1c3.4,6.1,4.8,12.2,4.8,19v1.4c0,20.4-11.6,34-34,41.4
		c-10.2,2.7-21.7,4.1-33.3,4.1H1844v-28.5h89.7c19,0,31.3-3.4,35.3-10.9c1.4-2,2-4.1,2-6.1v-1.4c0-6.1-5.4-10.9-17-12.9
		c-5.4-1.4-11.6-1.4-17.7-1.4h-21.7c-15.6,0-27.9-1.4-36.7-4.1c-4.8-1.4-9.5-2.7-12.9-4.8c-16.3-8.2-24.5-19.7-24.5-36V163
		c0-17,8.2-29.2,25.1-36.7C1875.9,121.5,1889.5,118.8,1905.8,118.8z"/>
	<polygon class="st3" points="1746.8,174.5 1704,174.5 1790.3,270.3 1833.1,270.3 	"/>
</g>
</svg>
