<?xml version="1.0" encoding="utf-8"?>
<!-- Generator: Adobe Illustrator 23.0.2, SVG Export Plug-In . SVG Version: 6.00 Build 0)  -->
<svg version="1.1" id="图层_1" xmlns="http://www.w3.org/2000/svg" xmlns:xlink="http://www.w3.org/1999/xlink" x="0px" y="0px"
	 viewBox="0 0 1504.3 267" style="enable-background:new 0 0 1504.3 267;" xml:space="preserve">
<style type="text/css">
	.st0{fill:#262A36;}
</style>
<g>
	<path class="st0" d="M265.7,22.1l-48.2,157.6l-43.5-142c-2.7-9.5-11.6-16.3-21.7-16.3s-19,6.1-21.7,16.3L86.3,179l-47.6-157H0
		l68.6,222.9H104l48.9-156.3l48.9,156.3h35.3l68.6-222.9C305.7,22.1,265.7,22.1,265.7,22.1z"/>
	<path class="st0" d="M362.1,93.4h6.8c23.1,0,42.1,5.4,57.1,17c5.4,4.1,8.8,8.2,11.6,11.6c9.5,12.9,14.3,28.5,14.3,46.9v2
		c0,5.4-0.7,10.9-1.4,16.3H316.6c3.4,9.5,9.5,16.3,17.7,21.1s17.7,6.8,27.2,6.8h82.2v30.6h-82.9c-19,0-35.3-3.4-48.2-10.2
		c-22.4-12.2-33.3-34-33.3-64.5v-1.4c0-20.4,6.1-37.4,17.7-51C312.5,101.6,333.6,93.4,362.1,93.4z M315.9,154.6h99.2
		c-3.4-9.5-8.8-17-16.3-21.7c-8.8-5.4-19-8.2-29.9-8.2h-6.8c-14.3,0-25.8,4.1-35.3,12.9c-4.1,4.1-6.8,8.2-8.2,10.9
		C318,149.1,316.6,151.2,315.9,154.6z"/>
	<path class="st0" d="M466.8,21.4h34v72h42.8c27.9,0,49.6,7.5,64.5,23.1c12.2,13.6,19,30.6,19,52.3v1.4c0,32.6-12.2,54.4-36.7,66.6
		c-12.2,6.1-27.9,8.8-44.8,8.8h-78.1V21.4H466.8z M500.8,124.7v89.7h43.5c12.2,0,22.4-3.4,31.9-10.2c10.9-8.2,15.6-19.7,15.6-35.3
		c0-18.3-7.5-31.3-22.4-38.7c-7.5-4.1-16.3-6.1-25.8-6.1h-42.8V124.7z"/>
	<path class="st0" d="M639.4,21.4h80.9c35.3,0,58.4,8.8,69.3,27.2c6.1,9.5,8.8,21.7,8.8,36.7c0,18.3-5.4,32.6-16.3,43.5l0,0
		c17.7,9.5,25.8,27.2,25.8,52.3v1.4c0,19.7-6.8,34.7-19.7,46.2c-14.3,11.6-33.3,17-58.4,17h-91V215H729c21.7,0,35.3-6.1,40.8-17.7
		c2-4.8,3.4-9.5,3.4-14.9c0-15.6-7.5-25.1-21.7-29.9c-6.1-2-14.3-2.7-23.1-2.7h-82.2v-30.6h72c21.7,0,35.3-5.4,40.8-16.3
		c2.7-4.8,3.4-10.2,3.4-15.6v-0.7c0-21.7-14.9-32.6-44.8-32.6h-80.2V21.4H639.4z"/>
	<path class="st0" d="M886.7,93.4h93.1v28.5h-90.4c-19,0-30.6,2.7-34.7,8.8c-1.4,2-2,4.1-2,6.1v1.4c0,6.1,4.1,10.2,12.9,12.9
		c5.4,2,12.2,2.7,21.1,2.7h25.8c34,0,56.4,8.2,66.6,25.1c3.4,6.1,4.8,12.2,4.8,19v1.4c0,20.4-11.6,34-34,41.4
		c-10.2,2.7-21.7,4.1-33.3,4.1h-91.7v-28.5h89.7c19,0,31.3-3.4,35.3-10.9c1.4-2,2-4.1,2-6.1V198c0-6.1-5.4-10.9-17-12.9
		c-5.4-1.4-11.6-1.4-17.7-1.4h-21.7c-15.6,0-27.9-1.4-36.7-4.1c-4.8-1.4-9.5-2.7-12.9-4.8c-16.3-8.2-24.5-19.7-24.5-36v-1.4
		c0-17,8.2-29.2,25.1-36.7C856.8,96.1,870.4,93.4,886.7,93.4z"/>
	<path class="st0" d="M1122.4,21.4h34v223.5h-78.1c-25.8,0-45.5-6.1-59.8-18.3c-14.9-12.9-21.7-31.9-21.7-57.1v-1.4
		c0-17.7,4.8-33.3,13.6-45.5c14.9-19.7,38-29.2,69.3-29.2h42.8V21.4z M1030.7,169.5c0,17.7,7.5,30.6,21.7,38.7
		c8.2,4.1,17,6.1,25.8,6.1h43.5v-89.7H1079c-13.6,0-25.1,3.4-34,10.9C1035.5,143.7,1030.7,155.2,1030.7,169.5z"/>
	<path class="st0" d="M1174.8,21.4h34v114.8l0,0c25.8,0,46.9-5.4,64.5-15.6c17.7-10.9,26.5-25.8,26.5-44.8h35.3v0.7
		c-2,31.3-12.9,57.1-39.4,72.7c-1.4,1.4-3.4,2-5.4,2.7l0,0c-30.6,12.2-58.4,15.6-81.5,15.6v77.5h-34L1174.8,21.4L1174.8,21.4z"/>
	<path class="st0" d="M1407.1,93.4h93.1v28.5h-90.4c-19,0-30.6,2.7-34.7,8.8c-1.4,2-2,4.1-2,6.1v1.4c0,6.1,4.1,10.2,12.9,12.9
		c5.4,2,12.2,2.7,21.1,2.7h25.8c34,0,56.4,8.2,66.6,25.1c3.4,6.1,4.8,12.2,4.8,19v1.4c0,20.4-11.6,34-34,41.4
		c-10.2,2.7-21.7,4.1-33.3,4.1h-91.7v-28.5h89.7c19,0,31.3-3.4,35.3-10.9c1.4-2,2-4.1,2-6.1V198c0-6.1-5.4-10.9-17-12.9
		c-5.4-1.4-11.6-1.4-17.7-1.4H1416c-15.6,0-27.9-1.4-36.7-4.1c-4.8-1.4-9.5-2.7-12.9-4.8c-16.3-8.2-24.5-19.7-24.5-36v-1.4
		c0-17,8.2-29.2,25.1-36.7C1377.2,96.1,1390.8,93.4,1407.1,93.4z"/>
	<polygon class="st0" points="1248.1,149.1 1205.3,149.1 1291.6,244.9 1334.4,244.9 	"/>
</g>
</svg>
