<?xml version="1.0" encoding="utf-8"?>
<!-- Generator: Adobe Illustrator 23.0.2, SVG Export Plug-In . SVG Version: 6.00 Build 0)  -->
<svg version="1.1" id="图层_1" xmlns="http://www.w3.org/2000/svg" xmlns:xlink="http://www.w3.org/1999/xlink" x="0px" y="0px"
	 viewBox="0 0 626.3 44" style="enable-background:new 0 0 626.3 44;" xml:space="preserve">
<style type="text/css">
	.st0{fill:#FFFFFF;fill-opacity:0.6;}
	.st1{fill:#FFFFFF;}
	.st2{fill:url(#SVGID_1_);}
	.st3{fill:url(#SVGID_2_);}
	.st4{fill:url(#SVGID_3_);}
	.st5{fill:url(#SVGID_4_);}
	.st6{fill:#F2FBFF;}
</style>
<path class="st0" d="M319.4,33c0.5,0.5,1.1,0.8,1.9,0.8c0.7,0,1.3-0.3,1.8-0.8l7.3-7.3l7.3,7.3c0.5,0.5,1.1,0.7,1.8,0.7
	c0.7,0,1.3-0.2,1.8-0.7c0.5-0.5,0.8-1.1,0.7-1.8c0-0.7-0.2-1.3-0.7-1.8L334,22l7.3-7.3c0.5-0.5,0.7-1.1,0.7-1.8
	c0-0.7-0.3-1.3-0.8-1.9c-0.5-0.5-1.1-0.7-1.8-0.7c-0.7,0-1.3,0.2-1.8,0.7l-7.3,7.3L323,11c-0.5-0.5-1.1-0.7-1.8-0.7
	c-0.7,0-1.3,0.2-1.8,0.7c-0.5,0.5-0.8,1.1-0.8,1.8c0,0.7,0.3,1.3,0.8,1.8l7.3,7.3l-7.3,7.3c-0.5,0.5-0.8,1.1-0.8,1.8
	C318.6,31.9,318.9,32.5,319.4,33z"/>
<path class="st1" d="M489.4,8h-18.1c-0.8,0-1.6,0.1-2.3,0.4c-0.7,0.3-1.4,0.7-1.9,1.2c-0.6,0.5-1,1.1-1.3,1.8
	c-0.3,0.7-0.5,1.4-0.5,2.1v16.9c0,0.7,0.2,1.5,0.5,2.1c0.3,0.7,0.7,1.3,1.3,1.8c0.6,0.5,1.2,0.9,1.9,1.2c0.7,0.3,1.5,0.4,2.3,0.4
	h18.1c0.8,0,1.5-0.1,2.3-0.4c0.7-0.3,1.4-0.7,1.9-1.2c0.6-0.5,1-1.1,1.3-1.8c0.3-0.7,0.5-1.4,0.5-2.1V13.5c0-0.7-0.2-1.5-0.5-2.1
	c-0.3-0.7-0.7-1.3-1.3-1.8c-0.6-0.5-1.2-0.9-1.9-1.2C490.9,8.1,490.2,8,489.4,8z M489.3,30.4h-18V13.6h18L489.3,30.4z"/>
<path class="st1" d="M620.5,8h-17.3c-0.8,0-1.5,0.1-2.2,0.4c-0.7,0.3-1.4,0.7-1.9,1.2c-0.5,0.5-1,1.1-1.3,1.8
	c-0.3,0.7-0.5,1.4-0.5,2.1V36h5.9v-9.2h17.2V36h5.9V13.5c0-0.7-0.2-1.5-0.5-2.1s-0.7-1.3-1.3-1.8c-0.5-0.5-1.2-0.9-1.9-1.2
	C622,8.1,621.2,8,620.5,8z M620.4,21.2h-17.2v-7.6h17.2V21.2z"/>
<linearGradient id="SVGID_1_" gradientUnits="userSpaceOnUse" x1="376.1975" y1="3.8989" x2="411.0095" y2="43.6189" gradientTransform="matrix(1 0 0 -1 0 46)">
	<stop  offset="8.000000e-02" style="stop-color:#9945FF"/>
	<stop  offset="0.3" style="stop-color:#8752F3"/>
	<stop  offset="0.5" style="stop-color:#5497D5"/>
	<stop  offset="0.6" style="stop-color:#43B4CA"/>
	<stop  offset="0.72" style="stop-color:#28E0B9"/>
	<stop  offset="0.97" style="stop-color:#19FB9B"/>
</linearGradient>
<path class="st2" d="M415.1,32.9l-7.1,7.5c-0.2,0.2-0.3,0.3-0.5,0.4c-0.2,0.1-0.4,0.1-0.7,0.1h-33.6c-0.2,0-0.3,0-0.5-0.1
	c-0.1-0.1-0.2-0.2-0.3-0.4c-0.1-0.1-0.1-0.3-0.1-0.5c0-0.2,0.1-0.3,0.2-0.4l7.1-7.5c0.2-0.2,0.3-0.3,0.5-0.4
	c0.2-0.1,0.4-0.1,0.7-0.1h33.6c0.2,0,0.3,0,0.5,0.1c0.1,0.1,0.2,0.2,0.3,0.4c0.1,0.1,0.1,0.3,0.1,0.5
	C415.3,32.7,415.2,32.8,415.1,32.9z M408,17.8c-0.2-0.2-0.3-0.3-0.5-0.4c-0.2-0.1-0.4-0.1-0.7-0.1h-33.6c-0.2,0-0.3,0-0.5,0.1
	c-0.1,0.1-0.2,0.2-0.3,0.4c-0.1,0.1-0.1,0.3-0.1,0.5c0,0.2,0.1,0.3,0.2,0.4l7.1,7.5c0.2,0.2,0.3,0.3,0.5,0.4
	c0.2,0.1,0.4,0.1,0.7,0.1h33.6c0.2,0,0.3,0,0.5-0.1c0.1-0.1,0.2-0.2,0.3-0.4c0.1-0.1,0.1-0.3,0.1-0.5c0-0.2-0.1-0.3-0.2-0.4
	L408,17.8z M373.2,12.4h33.6c0.2,0,0.4,0,0.7-0.1s0.4-0.2,0.5-0.4l7.1-7.5c0.1-0.1,0.2-0.3,0.2-0.4c0-0.2,0-0.3-0.1-0.5
	c-0.1-0.1-0.2-0.3-0.3-0.4C414.8,3,414.7,3,414.5,3h-33.6c-0.2,0-0.4,0-0.7,0.1c-0.2,0.1-0.4,0.2-0.5,0.4l-7.1,7.5
	c-0.1,0.1-0.2,0.3-0.2,0.4c0,0.2,0,0.3,0.1,0.5c0.1,0.1,0.2,0.3,0.3,0.4C372.8,12.3,373,12.4,373.2,12.4z"/>
<path class="st1" d="M454.6,19.2h-17.4v-5.6h22V8h-22c-0.8,0-1.5,0.1-2.2,0.4c-0.7,0.3-1.3,0.7-1.9,1.2c-0.5,0.5-1,1.1-1.3,1.8
	c-0.3,0.7-0.4,1.4-0.4,2.1v5.7c0,0.7,0.2,1.5,0.4,2.1c0.3,0.7,0.7,1.3,1.3,1.8c0.5,0.5,1.2,0.9,1.9,1.2c0.7,0.3,1.4,0.4,2.2,0.4
	h17.4v5.6h-22.8V36h22.8c0.8,0,1.5-0.1,2.2-0.4c0.7-0.3,1.3-0.7,1.9-1.2c0.5-0.5,1-1.1,1.3-1.8c0.3-0.7,0.4-1.4,0.4-2.1v-5.7
	c0-0.7-0.2-1.5-0.4-2.1c-0.3-0.7-0.7-1.3-1.3-1.8c-0.5-0.5-1.2-0.9-1.9-1.2C456.1,19.3,455.3,19.2,454.6,19.2z"/>
<path class="st1" d="M551.5,8h-17.3c-0.8,0-1.5,0.1-2.2,0.4c-0.7,0.3-1.3,0.7-1.9,1.2c-0.5,0.5-1,1.1-1.3,1.8
	c-0.3,0.7-0.4,1.4-0.5,2.1V36h5.9v-9.2h17.2V36h5.9V13.5c0-0.7-0.2-1.5-0.5-2.1s-0.7-1.3-1.3-1.8c-0.5-0.5-1.2-0.9-1.9-1.2
	C553,8.1,552.2,8,551.5,8z M551.4,21.2h-17.2v-7.6h17.2V21.2z"/>
<path class="st1" d="M505.3,8h-6v22.4c0,0.7,0.2,1.5,0.5,2.1c0.3,0.7,0.7,1.3,1.3,1.8c0.6,0.5,1.2,0.9,1.9,1.2
	c0.7,0.3,1.5,0.4,2.3,0.4h18v-5.6h-18V8z"/>
<path class="st1" d="M585.5,30.4h-2.3l-8.3-20.1c-0.3-0.7-0.8-1.3-1.4-1.7c-0.6-0.4-1.4-0.6-2.1-0.6h-5.2c-0.5,0-1,0.1-1.5,0.3
	c-0.5,0.2-0.9,0.5-1.2,0.8c-0.4,0.3-0.6,0.8-0.8,1.2c-0.2,0.5-0.3,0.9-0.3,1.4V36h5.8V13.6h2.3l8.3,20.1c0.3,0.7,0.8,1.3,1.4,1.7
	c0.6,0.4,1.4,0.6,2.1,0.6h5.2c0.5,0,1-0.1,1.5-0.3c0.5-0.2,0.9-0.5,1.2-0.8c0.4-0.3,0.6-0.8,0.8-1.2c0.2-0.5,0.3-0.9,0.3-1.4V8h-5.8
	V30.4z"/>
<linearGradient id="SVGID_2_" gradientUnits="userSpaceOnUse" x1="-2.4396" y1="-8.6176" x2="21.5217" y2="22.8744">
	<stop  offset="0" style="stop-color:#BA3CCB"/>
	<stop  offset="1" style="stop-color:#8B05FB"/>
</linearGradient>
<path class="st3" d="M26.7,16.5l-6.2,9.1c-1.7,2.5-5.4,2.4-7-0.1L3.1,9.4l0,0c-0.6-1-1.7-1.7-3-1.7L0,7.6l5.1-3.8
	c3.1-1.8,7-0.9,9,2.1l5.4,8.3l0.1,0.1C21.3,16.4,24.1,17.2,26.7,16.5L26.7,16.5z"/>
<linearGradient id="SVGID_3_" gradientUnits="userSpaceOnUse" x1="38.9516" y1="41.1357" x2="30.9417" y2="15.4629">
	<stop  offset="0.2654" style="stop-color:#FC6229"/>
	<stop  offset="1" style="stop-color:#FF943F"/>
</linearGradient>
<path class="st4" d="M44.7,3.8c-3.1-1.8-7-0.9-9,2.1L22,27.1l-0.1,0.1c-1.3,1.9-3.6,2.7-5.8,2l-1.3-0.5l6.9,10.8c1.3,2,4.2,2,5.5,0
	L48.5,6.7L44.7,3.8z"/>
<linearGradient id="SVGID_4_" gradientUnits="userSpaceOnUse" x1="54.3884" y1="36.3194" x2="46.3785" y2="10.6466">
	<stop  offset="0.2654" style="stop-color:#FC6229"/>
	<stop  offset="1" style="stop-color:#FF943F"/>
</linearGradient>
<path class="st5" d="M60.4,3.8c-3.1-1.8-7-0.9-9,2.1L33.5,33.5l3.8,6c1.3,2,4.2,2,5.5,0l15.5-23.9l4.1-6.3c0.6-1,1.7-1.7,3-1.7
	l0.1,0L60.4,3.8z"/>
<g>
	<path class="st6" d="M112.5,5.3l-7.1,23.2L99,7.6c-0.4-1.4-1.7-2.4-3.2-2.4c-1.5,0-2.8,0.9-3.2,2.4l-6.5,20.8L79.1,5.3h-5.7
		l10.1,32.8h5.2l7.2-23l7.2,23h5.2l10.1-32.8H112.5z"/>
	<path class="st6" d="M126.7,15.8h1c3.4,0,6.2,0.8,8.4,2.5c0.8,0.6,1.3,1.2,1.7,1.7c1.4,1.9,2.1,4.2,2.1,6.9v0.3
		c0,0.8-0.1,1.6-0.2,2.4H120c0.5,1.4,1.4,2.4,2.6,3.1c1.2,0.7,2.6,1,4,1h12.1v4.5h-12.2c-2.8,0-5.2-0.5-7.1-1.5
		c-3.3-1.8-4.9-5-4.9-9.5v-0.2c0-3,0.9-5.5,2.6-7.5C119.4,17,122.5,15.8,126.7,15.8z M119.9,24.8h14.6c-0.5-1.4-1.3-2.5-2.4-3.2
		c-1.3-0.8-2.8-1.2-4.4-1.2h-1c-2.1,0-3.8,0.6-5.2,1.9c-0.6,0.6-1,1.2-1.2,1.6C120.2,24,120,24.3,119.9,24.8z"/>
	<path class="st6" d="M142.1,5.2h5v10.6h6.3c4.1,0,7.3,1.1,9.5,3.4c1.8,2,2.8,4.5,2.8,7.7v0.2c0,4.8-1.8,8-5.4,9.8
		c-1.8,0.9-4.1,1.3-6.6,1.3h-11.5V5.2z M147.1,20.4v13.2h6.4c1.8,0,3.3-0.5,4.7-1.5c1.6-1.2,2.3-2.9,2.3-5.2c0-2.7-1.1-4.6-3.3-5.7
		c-1.1-0.6-2.4-0.9-3.8-0.9H147.1z"/>
	<path class="st6" d="M167.5,5.2h11.9c5.2,0,8.6,1.3,10.2,4c0.9,1.4,1.3,3.2,1.3,5.4c0,2.7-0.8,4.8-2.4,6.4v0c2.6,1.4,3.8,4,3.8,7.7
		v0.2c0,2.9-1,5.1-2.9,6.8c-2.1,1.7-4.9,2.5-8.6,2.5h-13.4v-4.5h13.3c3.2,0,5.2-0.9,6-2.6c0.3-0.7,0.5-1.4,0.5-2.2
		c0-2.3-1.1-3.7-3.2-4.4c-0.9-0.3-2.1-0.4-3.4-0.4h-12.1v-4.5h10.6c3.2,0,5.2-0.8,6-2.4c0.4-0.7,0.5-1.5,0.5-2.3v-0.1
		c0-3.2-2.2-4.8-6.6-4.8h-11.8V5.2z"/>
	<path class="st6" d="M203.9,15.8h13.7v4.2h-13.3c-2.8,0-4.5,0.4-5.1,1.3c-0.2,0.3-0.3,0.6-0.3,0.9v0.2c0,0.9,0.6,1.5,1.9,1.9
		c0.8,0.3,1.8,0.4,3.1,0.4h3.8c5,0,8.3,1.2,9.8,3.7c0.5,0.9,0.7,1.8,0.7,2.8v0.2c0,3-1.7,5-5,6.1c-1.5,0.4-3.2,0.6-4.9,0.6h-13.5
		v-4.2H208c2.8,0,4.6-0.5,5.2-1.6c0.2-0.3,0.3-0.6,0.3-0.9v-0.2c0-0.9-0.8-1.6-2.5-1.9c-0.8-0.2-1.7-0.2-2.6-0.2h-3.2
		c-2.3,0-4.1-0.2-5.4-0.6c-0.7-0.2-1.4-0.4-1.9-0.7c-2.4-1.2-3.6-2.9-3.6-5.3v-0.2c0-2.5,1.2-4.3,3.7-5.4
		C199.5,16.2,201.5,15.8,203.9,15.8z"/>
	<path class="st6" d="M238.6,5.2h5v32.9h-11.5c-3.8,0-6.7-0.9-8.8-2.7c-2.2-1.9-3.2-4.7-3.2-8.4v-0.2c0-2.6,0.7-4.9,2-6.7
		c2.2-2.9,5.6-4.3,10.2-4.3h6.3V5.2z M225.1,27c0,2.6,1.1,4.5,3.2,5.7c1.2,0.6,2.5,0.9,3.8,0.9h6.4V20.4h-6.3c-2,0-3.7,0.5-5,1.6
		C225.8,23.2,225.1,24.9,225.1,27z"/>
	<path class="st6" d="M246.3,5.2h5v16.9h0c3.8,0,6.9-0.8,9.5-2.3c2.6-1.6,3.9-3.8,3.9-6.6h5.2v0.1c-0.3,4.6-1.9,8.4-5.8,10.7
		c-0.2,0.2-0.5,0.3-0.8,0.4v0c-4.5,1.8-8.6,2.3-12,2.3v11.4h-5V5.2z"/>
	<path class="st6" d="M280.5,15.8h13.7v4.2h-13.3c-2.8,0-4.5,0.4-5.1,1.3c-0.2,0.3-0.3,0.6-0.3,0.9v0.2c0,0.9,0.6,1.5,1.9,1.9
		c0.8,0.3,1.8,0.4,3.1,0.4h3.8c5,0,8.3,1.2,9.8,3.7c0.5,0.9,0.7,1.8,0.7,2.8v0.2c0,3-1.7,5-5,6.1c-1.5,0.4-3.2,0.6-4.9,0.6h-13.5
		v-4.2h13.2c2.8,0,4.6-0.5,5.2-1.6c0.2-0.3,0.3-0.6,0.3-0.9v-0.2c0-0.9-0.8-1.6-2.5-1.9c-0.8-0.2-1.7-0.2-2.6-0.2h-3.2
		c-2.3,0-4.1-0.2-5.4-0.6c-0.7-0.2-1.4-0.4-1.9-0.7c-2.4-1.2-3.6-2.9-3.6-5.3v-0.2c0-2.5,1.2-4.3,3.7-5.4
		C276.1,16.2,278.1,15.8,280.5,15.8z"/>
	<polygon class="st6" points="257.1,24 250.8,24 263.5,38.1 269.8,38.1 	"/>
</g>
</svg>
